<?xml version="1.0" encoding="utf-8"?>
<svg xmlns="http://www.w3.org/2000/svg" font-family="ConsolasFallback,Consolas,monospace" width="1180" height="530" viewBox="0 0 1180 530" fontsize="15px">
<style>
rect {fill: black;}
text, tspan {white-space: pre;}
.ascii {fill: #7DF9FF;}
.cc {fill: #888;}
.key {fill: #00ff88; font-weight: bold;}
.value {fill: #ffffff;}
</style>
<rect width="1180px" height="530px" fill="black" rx="15"/>
<g transform="translate(22,20) scale(0.42,0.88)">
</g>
<g id="neural-network">
<line x1="80" y1="100" x2="230" y2="70" stroke="#7DF9FF" stroke-width="1.5" opacity="0.1" />
<line x1="80" y1="100" x2="230" y2="120" stroke="#7DF9FF" stroke-width="1.5" opacity="0.36" />
<line x1="80" y1="100" x2="230" y2="170" stroke="#7DF9FF" stroke-width="1.5" opacity="0.36" />
<line x1="80" y1="100" x2="230" y2="220" stroke="#7DF9FF" stroke-width="1.5" opacity="0.11" />
<line x1="80" y1="100" x2="230" y2="270" stroke="#7DF9FF" stroke-width="1.5" opacity="0.36" />
<line x1="80" y1="100" x2="230" y2="320" stroke="#7DF9FF" stroke-width="1.5" opacity="0.36" />
<line x1="80" y1="100" x2="230" y2="370" stroke="#7DF9FF" stroke-width="1.5" opacity="0.11" />
<line x1="80" y1="160" x2="230" y2="70" stroke="#7DF9FF" stroke-width="1.5" opacity="0.39" />
<line x1="80" y1="160" x2="230" y2="120" stroke="#7DF9FF" stroke-width="1.5" opacity="0.18" />
<line x1="80" y1="160" x2="230" y2="170" stroke="#7DF9FF" stroke-width="1.5" opacity="0.31" />
<line x1="80" y1="160" x2="230" y2="220" stroke="#7DF9FF" stroke-width="1.5" opacity="0.39" />
<line x1="80" y1="160" x2="230" y2="270" stroke="#7DF9FF" stroke-width="1.5" opacity="0.18" />
<line x1="80" y1="160" x2="230" y2="320" stroke="#7DF9FF" stroke-width="1.5" opacity="0.31" />
<line x1="80" y1="160" x2="230" y2="370" stroke="#7DF9FF" stroke-width="1.5" opacity="0.39" />
<line x1="80" y1="220" x2="230" y2="70" stroke="#7DF9FF" stroke-width="1.5" opacity="0.25" />
<line x1="80" y1="220" x2="230" y2="120" stroke="#7DF9FF" stroke-width="1.5" opacity="0.4" />
<line x1="80" y1="220" x2="230" y2="170" stroke="#7DF9FF" stroke-width="1.5" opacity="0.25" />
<line x1="80" y1="220" x2="230" y2="220" stroke="#7DF9FF" stroke-width="1.5" opacity="0.25" />
<line x1="80" y1="220" x2="230" y2="270" stroke="#7DF9FF" stroke-width="1.5" opacity="0.4" />
<line x1="80" y1="220" x2="230" y2="320" stroke="#7DF9FF" stroke-width="1.5" opacity="0.25" />
<line x1="80" y1="220" x2="230" y2="370" stroke="#7DF9FF" stroke-width="1.5" opacity="0.25" />
<line x1="80" y1="280" x2="230" y2="70" stroke="#7DF9FF" stroke-width="1.5" opacity="0.31" />
<line x1="80" y1="280" x2="230" y2="120" stroke="#7DF9FF" stroke-width="1.5" opacity="0.18" />
<line x1="80" y1="280" x2="230" y2="170" stroke="#7DF9FF" stroke-width="1.5" opacity="0.39" />
<line x1="80" y1="280" x2="230" y2="220" stroke="#7DF9FF" stroke-width="1.5" opacity="0.31" />
<line x1="80" y1="280" x2="230" y2="270" stroke="#7DF9FF" stroke-width="1.5" opacity="0.18" />
<line x1="80" y1="280" x2="230" y2="320" stroke="#7DF9FF" stroke-width="1.5" opacity="0.39" />
<line x1="80" y1="280" x2="230" y2="370" stroke="#7DF9FF" stroke-width="1.5" opacity="0.31" />
<line x1="80" y1="340" x2="230" y2="70" stroke="#7DF9FF" stroke-width="1.5" opacity="0.37" />
<line x1="80" y1="340" x2="230" y2="120" stroke="#7DF9FF" stroke-width="1.5" opacity="0.36" />
<line x1="80" y1="340" x2="230" y2="170" stroke="#7DF9FF" stroke-width="1.5" opacity="0.11" />
<line x1="80" y1="340" x2="230" y2="220" stroke="#7DF9FF" stroke-width="1.5" opacity="0.36" />
<line x1="80" y1="340" x2="230" y2="270" stroke="#7DF9FF" stroke-width="1.5" opacity="0.36" />
<line x1="80" y1="340" x2="230" y2="320" stroke="#7DF9FF" stroke-width="1.5" opacity="0.1" />
<line x1="80" y1="340" x2="230" y2="370" stroke="#7DF9FF" stroke-width="1.5" opacity="0.36" />
<line x1="230" y1="70" x2="380" y2="130" stroke="#7DF9FF" stroke-width="1.5" opacity="0.1" />
<line x1="230" y1="70" x2="380" y2="190" stroke="#7DF9FF" stroke-width="1.5" opacity="0.36" />
<line x1="230" y1="70" x2="380" y2="250" stroke="#7DF9FF" stroke-width="1.5" opacity="0.36" />
<line x1="230" y1="70" x2="380" y2="310" stroke="#7DF9FF" stroke-width="1.5" opacity="0.11" />
<line x1="230" y1="120" x2="380" y2="130" stroke="#7DF9FF" stroke-width="1.5" opacity="0.39" />
<line x1="230" y1="120" x2="380" y2="190" stroke="#7DF9FF" stroke-width="1.5" opacity="0.18" />
<line x1="230" y1="120" x2="380" y2="250" stroke="#7DF9FF" stroke-width="1.5" opacity="0.31" />
<line x1="230" y1="120" x2="380" y2="310" stroke="#7DF9FF" stroke-width="1.5" opacity="0.39" />
<line x1="230" y1="170" x2="380" y2="130" stroke="#7DF9FF" stroke-width="1.5" opacity="0.25" />
<line x1="230" y1="170" x2="380" y2="190" stroke="#7DF9FF" stroke-width="1.5" opacity="0.4" />
<line x1="230" y1="170" x2="380" y2="250" stroke="#7DF9FF" stroke-width="1.5" opacity="0.25" />
<line x1="230" y1="170" x2="380" y2="310" stroke="#7DF9FF" stroke-width="1.5" opacity="0.25" />
<line x1="230" y1="220" x2="380" y2="130" stroke="#7DF9FF" stroke-width="1.5" opacity="0.31" />
<line x1="230" y1="220" x2="380" y2="190" stroke="#7DF9FF" stroke-width="1.5" opacity="0.18" />
<line x1="230" y1="220" x2="380" y2="250" stroke="#7DF9FF" stroke-width="1.5" opacity="0.39" />
<line x1="230" y1="220" x2="380" y2="310" stroke="#7DF9FF" stroke-width="1.5" opacity="0.31" />
<line x1="230" y1="270" x2="380" y2="130" stroke="#7DF9FF" stroke-width="1.5" opacity="0.37" />
<line x1="230" y1="270" x2="380" y2="190" stroke="#7DF9FF" stroke-width="1.5" opacity="0.36" />
<line x1="230" y1="270" x2="380" y2="250" stroke="#7DF9FF" stroke-width="1.5" opacity="0.11" />
<line x1="230" y1="270" x2="380" y2="310" stroke="#7DF9FF" stroke-width="1.5" opacity="0.36" />
<line x1="230" y1="320" x2="380" y2="130" stroke="#7DF9FF" stroke-width="1.5" opacity="0.16" />
<line x1="230" y1="320" x2="380" y2="190" stroke="#7DF9FF" stroke-width="1.5" opacity="0.32" />
<line x1="230" y1="320" x2="380" y2="250" stroke="#7DF9FF" stroke-width="1.5" opacity="0.39" />
<line x1="230" y1="320" x2="380" y2="310" stroke="#7DF9FF" stroke-width="1.5" opacity="0.17" />
<line x1="230" y1="370" x2="380" y2="130" stroke="#7DF9FF" stroke-width="1.5" opacity="0.4" />
<line x1="230" y1="370" x2="380" y2="190" stroke="#7DF9FF" stroke-width="1.5" opacity="0.24" />
<line x1="230" y1="370" x2="380" y2="250" stroke="#7DF9FF" stroke-width="1.5" opacity="0.26" />
<line x1="230" y1="370" x2="380" y2="310" stroke="#7DF9FF" stroke-width="1.5" opacity="0.4" />
<circle cx="80" cy="100" r="5" fill="#00ff88" />
<circle cx="80" cy="100" r="9" fill="none" stroke="#00ff88" stroke-width="1.5" opacity="0.6" />
<circle cx="80" cy="160" r="5" fill="#00ff88" />
<circle cx="80" cy="160" r="9" fill="none" stroke="#00ff88" stroke-width="1.5" opacity="0.6" />
<circle cx="80" cy="220" r="5" fill="#00ff88" />
<circle cx="80" cy="220" r="9" fill="none" stroke="#00ff88" stroke-width="1.5" opacity="0.6" />
<circle cx="80" cy="280" r="5" fill="#00ff88" />
<circle cx="80" cy="280" r="9" fill="none" stroke="#00ff88" stroke-width="1.5" opacity="0.6" />
<circle cx="80" cy="340" r="5" fill="#00ff88" />
<circle cx="80" cy="340" r="9" fill="none" stroke="#00ff88" stroke-width="1.5" opacity="0.6" />
<circle cx="230" cy="70" r="5" fill="#00ff88" />
<circle cx="230" cy="70" r="9" fill="none" stroke="#00ff88" stroke-width="1.5" opacity="0.6" />
<circle cx="230" cy="120" r="5" fill="#00ff88" />
<circle cx="230" cy="120" r="9" fill="none" stroke="#00ff88" stroke-width="1.5" opacity="0.6" />
<circle cx="230" cy="170" r="5" fill="#00ff88" />
<circle cx="230" cy="170" r="9" fill="none" stroke="#00ff88" stroke-width="1.5" opacity="0.6" />
<circle cx="230" cy="220" r="5" fill="#00ff88" />
<circle cx="230" cy="220" r="9" fill="none" stroke="#00ff88" stroke-width="1.5" opacity="0.6" />
<circle cx="230" cy="270" r="5" fill="#00ff88" />
<circle cx="230" cy="270" r="9" fill="none" stroke="#00ff88" stroke-width="1.5" opacity="0.6" />
<circle cx="230" cy="320" r="5" fill="#00ff88" />
<circle cx="230" cy="320" r="9" fill="none" stroke="#00ff88" stroke-width="1.5" opacity="0.6" />
<circle cx="230" cy="370" r="5" fill="#00ff88" />
<circle cx="230" cy="370" r="9" fill="none" stroke="#00ff88" stroke-width="1.5" opacity="0.6" />
<circle cx="380" cy="130" r="5" fill="#00ff88" />
<circle cx="380" cy="130" r="9" fill="none" stroke="#00ff88" stroke-width="1.5" opacity="0.6" />
<circle cx="380" cy="190" r="5" fill="#00ff88" />
<circle cx="380" cy="190" r="9" fill="none" stroke="#00ff88" stroke-width="1.5" opacity="0.6" />
<circle cx="380" cy="250" r="5" fill="#00ff88" />
<circle cx="380" cy="250" r="9" fill="none" stroke="#00ff88" stroke-width="1.5" opacity="0.6" />
<circle cx="380" cy="310" r="5" fill="#00ff88" />
<circle cx="380" cy="310" r="9" fill="none" stroke="#00ff88" stroke-width="1.5" opacity="0.6" />
</g>
<text x="0" y="0">
<tspan x="520" y="30" fill="#7DF9FF" fontsize="17px">Thejus@Neural-Grid</tspan> -----[========== PROFILE ==========]-----
<tspan x="520" y="50" class="cc">. </tspan><tspan class="key">Subject</tspan>:<tspan class="cc"> .................... </tspan><tspan class="value">Thejus P K</tspan>
<tspan x="520" y="70" class="cc">. </tspan><tspan class="key">Role</tspan>:<tspan class="cc"> .................. </tspan><tspan class="value">AI &amp; ML Developer</tspan>
<tspan x="520" y="90" class="cc">. </tspan><tspan class="key">Origin</tspan>:<tspan class="cc"> ................. </tspan><tspan class="value">Kannur, Kerala, India</tspan>
<tspan x="520" y="110" class="cc">. </tspan><tspan class="key">Status</tspan>:<tspan class="cc"> ........... </tspan><tspan class="value">Learning : Building : Shipping</tspan>
<tspan x="520" y="130" class="cc">. </tspan><tspan class="key">ToolChain</tspan>:<tspan class="cc"> .............. </tspan><tspan class="value">Python, TensorFlow, VS Code</tspan>
<tspan x="520" y="150" class="cc">. </tspan>
<tspan x="520" y="170" class="cc">. </tspan><tspan class="key">Neural</tspan>.<tspan class="key">Core</tspan>:<tspan class="cc"> ..... </tspan><tspan class="value">Python, Java, C, SQL</tspan>
<tspan x="520" y="190" class="cc">. </tspan><tspan class="key">Neural</tspan>.<tspan class="key">ML</tspan>:<tspan class="cc"> ...... </tspan><tspan class="value">TensorFlow, Keras, LSTM, NLP</tspan>
<tspan x="520" y="210" class="cc">. </tspan><tspan class="key">Neural</tspan>.<tspan class="key">Data</tspan>:<tspan class="cc"> ....... </tspan><tspan class="value">Pandas, NumPy, Scikit-learn</tspan>
<tspan x="520" y="230" class="cc">. </tspan><tspan class="key">Neural</tspan>.<tspan class="key">Deploy</tspan>:<tspan class="cc"> ......... </tspan><tspan class="value">Flask, Streamlit, REST API</tspan>
<tspan x="520" y="250" class="cc">. </tspan><tspan class="key">Neural</tspan>.<tspan class="key">Focus</tspan>:<tspan class="cc"> ........ </tspan><tspan class="value">Deep Learning, Anomaly Detection</tspan>
<tspan x="520" y="270" class="cc">. </tspan>
<tspan x="520" y="290" fill="#7DF9FF">- Projects</tspan> -----[========== ARSENAL ==========]-----
<tspan x="520" y="310" class="cc">. </tspan><tspan class="key">Project</tspan>.<tspan class="key">01</tspan>:<tspan class="cc"> ....... </tspan><tspan class="value">LSTM-Based Multi-Sensor Anomaly Detection</tspan>
<tspan x="520" y="330" class="cc">. </tspan><tspan class="key">Project</tspan>.<tspan class="key">02</tspan>:<tspan class="cc"> ....... </tspan><tspan class="value">Sentiment Analysis of Tweets</tspan>
<tspan x="520" y="350" class="cc">. </tspan>
<tspan x="520" y="370" fill="#7DF9FF">- Contact</tspan> -----[========== CONNECT ==========]-----
<tspan x="520" y="390" class="cc">. </tspan><tspan class="key">Grid</tspan>.<tspan class="key">Mail</tspan>:<tspan class="cc"> .................... </tspan><tspan class="value">thejuspwork@gmail.com</tspan>
<tspan x="520" y="410" class="cc">. </tspan><tspan class="key">Grid</tspan>.<tspan class="key">Portfolio</tspan>:<tspan class="cc"> .......... </tspan><tspan class="value">portfolio-cxt.pages.dev</tspan>
<tspan x="520" y="430" class="cc">. </tspan><tspan class="key">Grid</tspan>.<tspan class="key">LinkedIn</tspan>:<tspan class="cc"> ................ </tspan><tspan class="value">linkedin.com/in/thejus-pk</tspan>
<tspan x="520" y="450" class="cc">. </tspan><tspan class="key">Grid</tspan>.<tspan class="key">Github</tspan>:<tspan class="cc"> .................. </tspan><tspan class="value">github.com/thejus-pk</tspan>
</text>
</svg>
